<svg xmlns="http://www.w3.org/2000/svg" width="720" height="180" viewBox="0 0 720 180" role="img" aria-labelledby="title desc">
  <title id="title">ResearchKit logo</title>
  <desc id="desc">ResearchKit wordmark with an open-book research mark.</desc>
  <rect width="720" height="180" fill="none"/>
  <g transform="translate(28 28)">
    <rect x="18" y="0" width="60" height="16" rx="8" fill="#88d5dd"/>
    <rect x="0" y="16" width="96" height="108" rx="20" fill="#173f5f"/>
    <path d="M18 36h26c12 0 22 10 22 22v42c-8-7-18-10-31-10H18Z" fill="#f6fdff"/>
    <path d="M78 36H52c-12 0-22 10-22 22v42c8-7 18-10 31-10h17Z" fill="#e8f9fb"/>
    <path d="M48 36v70" stroke="#5ab6c2" stroke-width="5" stroke-linecap="round"/>
    <path d="M26 53h20M26 67h20M26 81h20M58 53h12M58 67h12M58 81h12" stroke="#5ab6c2" stroke-width="5" stroke-linecap="round"/>
    <circle cx="78" cy="96" r="11" fill="#289db0"/>
    <path d="M86 104l14 14" stroke="#289db0" stroke-width="6" stroke-linecap="round"/>
  </g>
  <text x="150" y="116" fill="#173f5f" font-size="74" font-weight="600" font-style="italic" font-family="'Palatino Linotype', 'Book Antiqua', Georgia, serif">ResearchKit</text>
</svg>
