<svg xmlns="http://www.w3.org/2000/svg" width="128" height="128" viewBox="0 0 128 128">
  <rect width="128" height="128" rx="28" fill="#000"/>
  <rect x="44" y="16" width="40" height="12" rx="6" fill="#000"/>
  <path d="M28 38h24c10 0 18 8 18 18v32c-7-6-15-8-26-8H28Z" fill="#fff"/>
  <path d="M100 38H76c-10 0-18 8-18 18v32c7-6 15-8 26-8h16Z" fill="#fff"/>
  <path d="M64 38v56" stroke="#000" stroke-width="5" stroke-linecap="round"/>
  <path d="M36 54h18M36 66h18M36 78h18M74 54h12M74 66h12M74 78h12" stroke="#000" stroke-width="5" stroke-linecap="round"/>
  <circle cx="92" cy="90" r="10" fill="#000"/>
  <path d="M99 97l13 13" stroke="#000" stroke-width="6" stroke-linecap="round"/>
</svg>
